# xmcd
#
# Track frame offsets: 
#        150
#        7714
#        38738
#        64657
#        90276
#        107350
#        130282
#        150987
#        174731
#        189972
#        193945
#        214936
#        238485
#        252917
#        281310
#        284693
#        307162
#        312711
#
# Disc length: 4381 seconds
#
# Revision: 2
# Processed by: cddbd v1.5.2PL0 Copyright (c) Steve Scherf et al.
# Submitted via: ExactAudioCopy v1.0b6
#
DISCID=fd111b12
DTITLE=DJ 3000 - Migration (JP CD)
DYEAR=2006
DGENRE=Techno
TTITLE0=Migration
TTITLE1=Reflections
TTITLE2=Sangita
TTITLE3=Passage To Malësia
TTITLE4=Long Street
TTITLE5=Shqipe
TTITLE6=Stand Alone
TTITLE7=Scorpion
TTITLE8=Pipas Poem
TTITLE9=Electric Soul
TTITLE10=Clear Channel
TTITLE11=Ancestors
TTITLE12=Tension Theory
TTITLE13=Tales Of Tarabuka
TTITLE14=Luk Smajlaj
TTITLE15=Drumë
TTITLE16=The Arrival
TTITLE17=Kobe City
EXTD=
EXTT0=
EXTT1=
EXTT2=
EXTT3=
EXTT4=
EXTT5=
EXTT6=
EXTT7=
EXTT8=
EXTT9=
EXTT10=
EXTT11=
EXTT12=
EXTT13=
EXTT14=
EXTT15=
EXTT16=
EXTT17=
PLAYORDER=
